<svg width="111" height="53" viewBox="0 0 111 53" fill="none" xmlns="http://www.w3.org/2000/svg">
<path d="M99.5 0L106.861 9.75H92.1388L99.5 0Z" fill="#E4F2FD"/>
<rect y="7" width="111" height="46" rx="4" fill="#E4F2FD"/>
<path d="M24.6548 23C24.6015 23 24.5548 22.98 24.5148 22.94C24.4748 22.9 24.4548 22.8533 24.4548 22.8L24.4748 22.69L27.0048 16.2C27.0582 16.0667 27.1548 16 27.2948 16H27.6348C27.7748 16 27.8715 16.0667 27.9248 16.2L30.4548 22.69L30.4748 22.8C30.4748 22.8533 30.4548 22.9 30.4148 22.94C30.3748 22.98 30.3282 23 30.2748 23H30.0748C30.0148 23 29.9648 22.9833 29.9248 22.95C29.8915 22.9167 29.8682 22.8833 29.8548 22.85L29.2348 21.25H25.6948L25.0748 22.85C25.0615 22.8833 25.0348 22.9167 24.9948 22.95C24.9615 22.9833 24.9148 23 24.8548 23H24.6548ZM28.9948 20.65L27.4648 16.71L25.9348 20.65H28.9948ZM31.7588 24.9C31.6921 24.9 31.6388 24.88 31.5988 24.84C31.5588 24.8 31.5388 24.7467 31.5388 24.68V18.02C31.5388 17.9533 31.5588 17.9 31.5988 17.86C31.6388 17.82 31.6921 17.8 31.7588 17.8H31.9288C31.9954 17.8 32.0488 17.82 32.0888 17.86C32.1288 17.9 32.1488 17.9533 32.1488 18.02V18.49C32.5354 17.9633 33.0954 17.7 33.8288 17.7C34.5488 17.7 35.0788 17.93 35.4188 18.39C35.7654 18.8433 35.9488 19.4033 35.9688 20.07C35.9754 20.1367 35.9788 20.2467 35.9788 20.4C35.9788 20.5533 35.9754 20.6633 35.9688 20.73C35.9488 21.3967 35.7654 21.96 35.4188 22.42C35.0788 22.8733 34.5488 23.1 33.8288 23.1C33.1021 23.1 32.5421 22.8367 32.1488 22.31V24.68C32.1488 24.7467 32.1288 24.8 32.0888 24.84C32.0488 24.88 31.9954 24.9 31.9288 24.9H31.7588ZM33.7688 22.52C34.3088 22.52 34.7021 22.35 34.9488 22.01C35.2021 21.6633 35.3388 21.22 35.3588 20.68C35.3654 20.6133 35.3688 20.52 35.3688 20.4C35.3688 19.78 35.2488 19.2733 35.0088 18.88C34.7688 18.48 34.3554 18.28 33.7688 18.28C33.2421 18.28 32.8454 18.4567 32.5788 18.81C32.3121 19.1567 32.1688 19.5667 32.1488 20.04L32.1388 20.43L32.1488 20.82C32.1554 21.1067 32.2188 21.38 32.3388 21.64C32.4588 21.8933 32.6388 22.1033 32.8788 22.27C33.1188 22.4367 33.4154 22.52 33.7688 22.52ZM38.7393 23.1C38.4193 23.1 38.1226 23.0333 37.8493 22.9C37.576 22.7667 37.356 22.5867 37.1893 22.36C37.0293 22.1333 36.9493 21.8833 36.9493 21.61C36.9493 21.17 37.126 20.81 37.4793 20.53C37.8393 20.25 38.3226 20.07 38.9293 19.99L40.5093 19.77V19.42C40.5093 19.0533 40.396 18.7733 40.1693 18.58C39.9493 18.38 39.6093 18.28 39.1493 18.28C38.8093 18.28 38.5293 18.3467 38.3093 18.48C38.096 18.6133 37.9593 18.7733 37.8993 18.96C37.8726 19.04 37.8393 19.0967 37.7993 19.13C37.766 19.1567 37.7193 19.17 37.6593 19.17H37.5193C37.4593 19.17 37.406 19.15 37.3593 19.11C37.3193 19.0633 37.2993 19.01 37.2993 18.95C37.2993 18.8033 37.366 18.6333 37.4993 18.44C37.6326 18.24 37.8393 18.0667 38.1193 17.92C38.3993 17.7733 38.7426 17.7 39.1493 17.7C39.8626 17.7 40.3693 17.87 40.6693 18.21C40.9693 18.55 41.1193 18.9633 41.1193 19.45V22.78C41.1193 22.8467 41.0993 22.9 41.0593 22.94C41.0193 22.98 40.966 23 40.8993 23H40.7293C40.6626 23 40.6093 22.98 40.5693 22.94C40.5293 22.9 40.5093 22.8467 40.5093 22.78V22.31C40.3626 22.53 40.146 22.7167 39.8593 22.87C39.5793 23.0233 39.206 23.1 38.7393 23.1ZM38.8393 22.52C39.326 22.52 39.726 22.36 40.0393 22.04C40.3526 21.72 40.5093 21.26 40.5093 20.66V20.32L39.2193 20.5C38.6726 20.5733 38.2593 20.7 37.9793 20.88C37.6993 21.06 37.5593 21.2867 37.5593 21.56C37.5593 21.8667 37.686 22.1033 37.9393 22.27C38.1993 22.4367 38.4993 22.52 38.8393 22.52ZM44.6406 25.2C44.1206 25.2 43.704 25.11 43.3906 24.93C43.0773 24.75 42.8573 24.5433 42.7306 24.31C42.6106 24.0833 42.5506 23.8833 42.5506 23.71C42.5506 23.65 42.5706 23.6 42.6106 23.56C42.6573 23.52 42.7106 23.5 42.7706 23.5H42.9106C42.9706 23.5 43.0173 23.5133 43.0506 23.54C43.0906 23.5733 43.124 23.63 43.1506 23.71C43.3573 24.3167 43.8373 24.62 44.5906 24.62C45.164 24.62 45.5873 24.5 45.8606 24.26C46.134 24.0267 46.2706 23.6067 46.2706 23V22.31C45.884 22.8367 45.324 23.1 44.5906 23.1C43.8706 23.1 43.3373 22.8667 42.9906 22.4C42.6506 21.9267 42.4706 21.3533 42.4506 20.68L42.4406 20.4L42.4506 20.12C42.4706 19.4467 42.6506 18.8767 42.9906 18.41C43.3373 17.9367 43.8706 17.7 44.5906 17.7C45.3173 17.7 45.8773 17.9633 46.2706 18.49V18.03C46.2706 17.9633 46.2906 17.91 46.3306 17.87C46.3706 17.8233 46.424 17.8 46.4906 17.8H46.6506C46.7173 17.8 46.7706 17.8233 46.8106 17.87C46.8573 17.91 46.8806 17.9633 46.8806 18.03V22.9C46.8806 23.6133 46.714 24.1733 46.3806 24.58C46.0473 24.9933 45.4673 25.2 44.6406 25.2ZM44.6506 22.52C45.1773 22.52 45.574 22.3467 45.8406 22C46.1073 21.6467 46.2506 21.2333 46.2706 20.76C46.2773 20.6933 46.2806 20.5733 46.2806 20.4C46.2806 20.2267 46.2773 20.1067 46.2706 20.04C46.2506 19.5667 46.1073 19.1567 45.8406 18.81C45.574 18.4567 45.1773 18.28 44.6506 18.28C44.1106 18.28 43.714 18.4533 43.4606 18.8C43.214 19.14 43.0806 19.58 43.0606 20.12L43.0506 20.4L43.0606 20.68C43.0806 21.22 43.214 21.6633 43.4606 22.01C43.714 22.35 44.1106 22.52 44.6506 22.52ZM49.9112 23.1C49.5912 23.1 49.2945 23.0333 49.0212 22.9C48.7478 22.7667 48.5278 22.5867 48.3612 22.36C48.2012 22.1333 48.1212 21.8833 48.1212 21.61C48.1212 21.17 48.2978 20.81 48.6512 20.53C49.0112 20.25 49.4945 20.07 50.1012 19.99L51.6812 19.77V19.42C51.6812 19.0533 51.5678 18.7733 51.3412 18.58C51.1212 18.38 50.7812 18.28 50.3212 18.28C49.9812 18.28 49.7012 18.3467 49.4812 18.48C49.2678 18.6133 49.1312 18.7733 49.0712 18.96C49.0445 19.04 49.0112 19.0967 48.9712 19.13C48.9378 19.1567 48.8912 19.17 48.8312 19.17H48.6912C48.6312 19.17 48.5778 19.15 48.5312 19.11C48.4912 19.0633 48.4712 19.01 48.4712 18.95C48.4712 18.8033 48.5378 18.6333 48.6712 18.44C48.8045 18.24 49.0112 18.0667 49.2912 17.92C49.5712 17.7733 49.9145 17.7 50.3212 17.7C51.0345 17.7 51.5412 17.87 51.8412 18.21C52.1412 18.55 52.2912 18.9633 52.2912 19.45V22.78C52.2912 22.8467 52.2712 22.9 52.2312 22.94C52.1912 22.98 52.1378 23 52.0712 23H51.9012C51.8345 23 51.7812 22.98 51.7412 22.94C51.7012 22.9 51.6812 22.8467 51.6812 22.78V22.31C51.5345 22.53 51.3178 22.7167 51.0312 22.87C50.7512 23.0233 50.3778 23.1 49.9112 23.1ZM50.0112 22.52C50.4978 22.52 50.8978 22.36 51.2112 22.04C51.5245 21.72 51.6812 21.26 51.6812 20.66V20.32L50.3912 20.5C49.8445 20.5733 49.4312 20.7 49.1512 20.88C48.8712 21.06 48.7312 21.2867 48.7312 21.56C48.7312 21.8667 48.8578 22.1033 49.1112 22.27C49.3712 22.4367 49.6712 22.52 50.0112 22.52ZM54.0925 23C54.0258 23 53.9725 22.98 53.9325 22.94C53.8925 22.9 53.8725 22.8467 53.8725 22.78V18.03C53.8725 17.9633 53.8925 17.91 53.9325 17.87C53.9725 17.8233 54.0258 17.8 54.0925 17.8H54.2525C54.3192 17.8 54.3725 17.8233 54.4125 17.87C54.4592 17.91 54.4825 17.9633 54.4825 18.03V18.49C54.7225 18.03 55.1758 17.8 55.8425 17.8H56.2125C56.2792 17.8 56.3325 17.82 56.3725 17.86C56.4125 17.9 56.4325 17.9533 56.4325 18.02V18.16C56.4325 18.2267 56.4125 18.28 56.3725 18.32C56.3325 18.36 56.2792 18.38 56.2125 18.38H55.7825C55.3825 18.38 55.0658 18.4967 54.8325 18.73C54.5992 18.9633 54.4825 19.28 54.4825 19.68V22.78C54.4825 22.8467 54.4592 22.9 54.4125 22.94C54.3725 22.98 54.3192 23 54.2525 23H54.0925ZM59.793 16.73C59.7264 16.73 59.673 16.71 59.633 16.67C59.593 16.63 59.573 16.5767 59.573 16.51V16.13C59.573 16.0633 59.593 16.01 59.633 15.97C59.673 15.9233 59.7264 15.9 59.793 15.9H60.173C60.2397 15.9 60.293 15.9233 60.333 15.97C60.3797 16.01 60.403 16.0633 60.403 16.13V16.51C60.403 16.5767 60.3797 16.63 60.333 16.67C60.293 16.71 60.2397 16.73 60.173 16.73H59.793ZM59.903 23C59.8364 23 59.783 22.98 59.743 22.94C59.703 22.9 59.683 22.8467 59.683 22.78V18.02C59.683 17.9533 59.703 17.9 59.743 17.86C59.783 17.82 59.8364 17.8 59.903 17.8H60.073C60.1397 17.8 60.193 17.82 60.233 17.86C60.273 17.9 60.293 17.9533 60.293 18.02V22.78C60.293 22.8467 60.273 22.9 60.233 22.94C60.193 22.98 60.1397 23 60.073 23H59.903ZM63.6596 23C63.1663 23 62.8163 22.8533 62.6096 22.56C62.4029 22.26 62.2996 21.85 62.2996 21.33V18.38H61.5196C61.4529 18.38 61.3996 18.36 61.3596 18.32C61.3196 18.28 61.2996 18.2267 61.2996 18.16V18.02C61.2996 17.9533 61.3196 17.9 61.3596 17.86C61.3996 17.82 61.4529 17.8 61.5196 17.8H62.2996V16.12C62.2996 16.0533 62.3196 16 62.3596 15.96C62.3996 15.92 62.4529 15.9 62.5196 15.9H62.6896C62.7563 15.9 62.8096 15.92 62.8496 15.96C62.8896 16 62.9096 16.0533 62.9096 16.12V17.8H64.1496C64.2163 17.8 64.2696 17.82 64.3096 17.86C64.3496 17.9 64.3696 17.9533 64.3696 18.02V18.16C64.3696 18.2267 64.3496 18.28 64.3096 18.32C64.2696 18.36 64.2163 18.38 64.1496 18.38H62.9096V21.29C62.9096 21.6633 62.9696 21.9467 63.0896 22.14C63.2163 22.3267 63.4229 22.42 63.7096 22.42H64.2496C64.3163 22.42 64.3696 22.44 64.4096 22.48C64.4496 22.52 64.4696 22.5733 64.4696 22.64V22.78C64.4696 22.8467 64.4496 22.9 64.4096 22.94C64.3696 22.98 64.3163 23 64.2496 23H63.6596ZM67.4334 23.1C66.8 23.1 66.29 22.8933 65.9034 22.48C65.5167 22.06 65.2967 21.5 65.2434 20.8L65.2334 20.4L65.2434 20C65.2967 19.3067 65.5134 18.75 65.8934 18.33C66.28 17.91 66.7934 17.7 67.4334 17.7C68.1267 17.7 68.6667 17.93 69.0534 18.39C69.4467 18.85 69.6434 19.48 69.6434 20.28V20.43C69.6434 20.4967 69.62 20.55 69.5734 20.59C69.5334 20.63 69.48 20.65 69.4134 20.65H65.8534V20.75C65.8667 21.0633 65.9367 21.3567 66.0634 21.63C66.1967 21.8967 66.38 22.1133 66.6134 22.28C66.8467 22.44 67.12 22.52 67.4334 22.52C67.8 22.52 68.0967 22.45 68.3234 22.31C68.5567 22.1633 68.7234 22.0167 68.8234 21.87C68.8834 21.79 68.9267 21.74 68.9534 21.72C68.9867 21.7 69.0434 21.69 69.1234 21.69H69.2834C69.3434 21.69 69.3934 21.7067 69.4334 21.74C69.4734 21.7733 69.4934 21.8167 69.4934 21.87C69.4934 22.01 69.4034 22.18 69.2234 22.38C69.05 22.5733 68.8067 22.7433 68.4934 22.89C68.18 23.03 67.8267 23.1 67.4334 23.1ZM69.0334 20.09V20.05C69.0334 19.5367 68.8867 19.1133 68.5934 18.78C68.3067 18.4467 67.92 18.28 67.4334 18.28C66.9467 18.28 66.56 18.4467 66.2734 18.78C65.9934 19.1133 65.8534 19.5367 65.8534 20.05V20.09H69.0334ZM71.1823 23C71.1157 23 71.0623 22.98 71.0223 22.94C70.9823 22.9 70.9623 22.8467 70.9623 22.78V18.02C70.9623 17.9533 70.9823 17.9 71.0223 17.86C71.0623 17.82 71.1157 17.8 71.1823 17.8H71.3523C71.419 17.8 71.4723 17.82 71.5123 17.86C71.5523 17.9 71.5723 17.9533 71.5723 18.02V18.37C71.7457 18.15 71.9457 17.9833 72.1723 17.87C72.4057 17.7567 72.6823 17.7 73.0023 17.7C73.749 17.7 74.2823 18.0133 74.6023 18.64C74.7623 18.3533 74.989 18.1267 75.2823 17.96C75.5823 17.7867 75.9223 17.7 76.3023 17.7C76.8557 17.7 77.3057 17.89 77.6523 18.27C77.999 18.6433 78.1723 19.1767 78.1723 19.87V22.78C78.1723 22.8467 78.1523 22.9 78.1123 22.94C78.0723 22.98 78.019 23 77.9523 23H77.7823C77.7157 23 77.6623 22.98 77.6223 22.94C77.5823 22.9 77.5623 22.8467 77.5623 22.78V19.97C77.5623 19.3633 77.4357 18.93 77.1823 18.67C76.9357 18.41 76.609 18.28 76.2023 18.28C75.8423 18.28 75.529 18.4133 75.2623 18.68C75.0023 18.94 74.8723 19.37 74.8723 19.97V22.78C74.8723 22.8467 74.8523 22.9 74.8123 22.94C74.7723 22.98 74.719 23 74.6523 23H74.4823C74.4157 23 74.3623 22.98 74.3223 22.94C74.2823 22.9 74.2623 22.8467 74.2623 22.78V19.97C74.2623 19.37 74.1323 18.94 73.8723 18.68C73.6123 18.4133 73.289 18.28 72.9023 18.28C72.5423 18.28 72.229 18.4133 71.9623 18.68C71.7023 18.94 71.5723 19.3667 71.5723 19.96V22.78C71.5723 22.8467 71.5523 22.9 71.5123 22.94C71.4723 22.98 71.419 23 71.3523 23H71.1823ZM81.2259 21.57C81.1592 21.57 81.1059 21.55 81.0659 21.51C81.0259 21.47 81.0059 21.4167 81.0059 21.35V20.87C81.0059 20.5967 81.0525 20.35 81.1459 20.13C81.2392 19.91 81.3525 19.72 81.4859 19.56C81.6192 19.3933 81.7959 19.1967 82.0159 18.97C82.2892 18.6833 82.4859 18.45 82.6059 18.27C82.7325 18.0833 82.7959 17.8733 82.7959 17.64C82.7959 17.2867 82.6459 17.0067 82.3459 16.8C82.0459 16.5867 81.6992 16.48 81.3059 16.48C80.8859 16.48 80.5359 16.59 80.2559 16.81C79.9759 17.03 79.7959 17.3833 79.7159 17.87C79.6892 18.0167 79.6092 18.09 79.4759 18.09H79.3159C79.2559 18.09 79.2059 18.0733 79.1659 18.04C79.1259 18 79.1059 17.95 79.1059 17.89C79.1125 17.5233 79.2125 17.19 79.4059 16.89C79.5992 16.5833 79.8592 16.3433 80.1859 16.17C80.5192 15.99 80.8925 15.9 81.3059 15.9C81.7525 15.9 82.1325 15.98 82.4459 16.14C82.7659 16.3 83.0025 16.5133 83.1559 16.78C83.3159 17.0467 83.3959 17.3333 83.3959 17.64C83.3959 17.9867 83.3159 18.2867 83.1559 18.54C82.9959 18.7933 82.7592 19.0833 82.4459 19.41C82.1659 19.7033 81.9559 19.9533 81.8159 20.16C81.6825 20.3667 81.6159 20.6033 81.6159 20.87V21.35C81.6159 21.4167 81.5959 21.47 81.5559 21.51C81.5159 21.55 81.4625 21.57 81.3959 21.57H81.2259ZM81.1059 23C81.0392 23 80.9859 22.98 80.9459 22.94C80.9059 22.9 80.8859 22.8467 80.8859 22.78V22.4C80.8859 22.3333 80.9059 22.28 80.9459 22.24C80.9859 22.1933 81.0392 22.17 81.1059 22.17H81.4859C81.5525 22.17 81.6059 22.1933 81.6459 22.24C81.6925 22.28 81.7159 22.3333 81.7159 22.4V22.78C81.7159 22.8467 81.6925 22.9 81.6459 22.94C81.6059 22.98 81.5525 23 81.4859 23H81.1059Z" fill="black"/>
<rect x="15" y="30" width="37" height="15" rx="4" fill="#3A9FF1"/>
<path d="M28.2547 41.09C27.7207 41.09 27.2617 41.009 26.8777 40.847C26.4937 40.685 26.2027 40.472 26.0047 40.208C25.8067 39.944 25.7017 39.659 25.6897 39.353C25.6897 39.299 25.7077 39.254 25.7437 39.218C25.7797 39.182 25.8247 39.164 25.8787 39.164H26.6797C26.7517 39.164 26.8057 39.179 26.8417 39.209C26.8837 39.233 26.9227 39.275 26.9587 39.335C27.0187 39.539 27.1567 39.71 27.3727 39.848C27.5887 39.986 27.8827 40.055 28.2547 40.055C28.6807 40.055 29.0017 39.986 29.2177 39.848C29.4337 39.704 29.5417 39.506 29.5417 39.254C29.5417 39.086 29.4847 38.948 29.3707 38.84C29.2627 38.732 29.0977 38.639 28.8757 38.561C28.6597 38.483 28.3357 38.387 27.9037 38.273C27.1957 38.105 26.6767 37.883 26.3467 37.607C26.0227 37.325 25.8607 36.926 25.8607 36.41C25.8607 36.062 25.9537 35.753 26.1397 35.483C26.3317 35.213 26.6047 35 26.9587 34.844C27.3187 34.688 27.7357 34.61 28.2097 34.61C28.7017 34.61 29.1277 34.697 29.4877 34.871C29.8477 35.045 30.1207 35.264 30.3067 35.528C30.4987 35.786 30.6007 36.044 30.6127 36.302C30.6127 36.356 30.5947 36.401 30.5587 36.437C30.5227 36.473 30.4777 36.491 30.4237 36.491H29.5867C29.4607 36.491 29.3737 36.434 29.3257 36.32C29.2897 36.128 29.1697 35.969 28.9657 35.843C28.7617 35.711 28.5097 35.645 28.2097 35.645C27.8737 35.645 27.6097 35.708 27.4177 35.834C27.2257 35.96 27.1297 36.143 27.1297 36.383C27.1297 36.551 27.1777 36.689 27.2737 36.797C27.3697 36.905 27.5197 37.001 27.7237 37.085C27.9337 37.169 28.2337 37.262 28.6237 37.364C29.1517 37.484 29.5717 37.619 29.8837 37.769C30.2017 37.919 30.4357 38.108 30.5857 38.336C30.7357 38.564 30.8107 38.855 30.8107 39.209C30.8107 39.593 30.7027 39.929 30.4867 40.217C30.2767 40.499 29.9767 40.715 29.5867 40.865C29.2027 41.015 28.7587 41.09 28.2547 41.09ZM31.9141 35.546C31.8541 35.546 31.8031 35.525 31.7611 35.483C31.7191 35.441 31.6981 35.39 31.6981 35.33V34.682C31.6981 34.622 31.7191 34.571 31.7611 34.529C31.8031 34.487 31.8541 34.466 31.9141 34.466H32.7331C32.7931 34.466 32.8441 34.487 32.8861 34.529C32.9341 34.571 32.9581 34.622 32.9581 34.682V35.33C32.9581 35.39 32.9371 35.441 32.8951 35.483C32.8531 35.525 32.7991 35.546 32.7331 35.546H31.9141ZM31.9501 41C31.8901 41 31.8391 40.979 31.7971 40.937C31.7551 40.895 31.7341 40.844 31.7341 40.784V36.536C31.7341 36.476 31.7551 36.425 31.7971 36.383C31.8391 36.341 31.8901 36.32 31.9501 36.32H32.6971C32.7631 36.32 32.8141 36.341 32.8501 36.383C32.8921 36.419 32.9131 36.47 32.9131 36.536V40.784C32.9131 40.844 32.8921 40.895 32.8501 40.937C32.8141 40.979 32.7631 41 32.6971 41H31.9501ZM34.3232 41C34.2632 41 34.2122 40.979 34.1702 40.937C34.1282 40.895 34.1072 40.844 34.1072 40.784V36.536C34.1072 36.476 34.1282 36.425 34.1702 36.383C34.2122 36.341 34.2632 36.32 34.3232 36.32H35.0252C35.0852 36.32 35.1362 36.341 35.1782 36.383C35.2202 36.425 35.2412 36.476 35.2412 36.536V36.842C35.5532 36.434 35.9882 36.23 36.5462 36.23C37.2122 36.23 37.6772 36.497 37.9412 37.031C38.0852 36.791 38.2892 36.599 38.5532 36.455C38.8172 36.305 39.1022 36.23 39.4082 36.23C39.9002 36.23 40.3022 36.398 40.6142 36.734C40.9262 37.07 41.0822 37.559 41.0822 38.201V40.784C41.0822 40.844 41.0612 40.895 41.0192 40.937C40.9832 40.979 40.9322 41 40.8662 41H40.1282C40.0682 41 40.0172 40.979 39.9752 40.937C39.9332 40.895 39.9122 40.844 39.9122 40.784V38.273C39.9122 37.895 39.8312 37.622 39.6692 37.454C39.5132 37.28 39.3032 37.193 39.0392 37.193C38.8052 37.193 38.6042 37.28 38.4362 37.454C38.2742 37.628 38.1932 37.901 38.1932 38.273V40.784C38.1932 40.844 38.1722 40.895 38.1302 40.937C38.0882 40.979 38.0372 41 37.9772 41H37.2392C37.1792 41 37.1282 40.979 37.0862 40.937C37.0442 40.895 37.0232 40.844 37.0232 40.784V38.273C37.0232 37.895 36.9392 37.622 36.7712 37.454C36.6092 37.28 36.4022 37.193 36.1502 37.193C35.9102 37.193 35.7062 37.28 35.5382 37.454C35.3762 37.628 35.2952 37.901 35.2952 38.273V40.784C35.2952 40.844 35.2742 40.895 35.2322 40.937C35.1902 40.979 35.1392 41 35.0792 41H34.3232Z" fill="white"/>
<rect x="59" y="30" width="37" height="15" rx="4" fill="#FF576B"/>
<path d="M70.0025 41C69.9425 41 69.8915 40.979 69.8495 40.937C69.8075 40.895 69.7865 40.844 69.7865 40.784V34.925C69.7865 34.859 69.8045 34.805 69.8405 34.763C69.8825 34.721 69.9365 34.7 70.0025 34.7H70.6955C70.7675 34.7 70.8215 34.715 70.8575 34.745C70.8935 34.769 70.9265 34.802 70.9565 34.844L73.5485 38.876V34.925C73.5485 34.859 73.5665 34.805 73.6025 34.763C73.6445 34.721 73.6985 34.7 73.7645 34.7H74.5205C74.5865 34.7 74.6405 34.721 74.6825 34.763C74.7245 34.805 74.7455 34.859 74.7455 34.925V40.775C74.7455 40.841 74.7245 40.895 74.6825 40.937C74.6405 40.979 74.5895 41 74.5295 41H73.8275C73.7255 41 73.6385 40.952 73.5665 40.856L70.9835 36.914V40.784C70.9835 40.85 70.9625 40.904 70.9205 40.946C70.8785 40.982 70.8245 41 70.7585 41H70.0025ZM77.4008 41.09C77.0948 41.09 76.8128 41.03 76.5548 40.91C76.3028 40.784 76.1018 40.616 75.9518 40.406C75.8078 40.196 75.7358 39.965 75.7358 39.713C75.7358 39.305 75.9008 38.975 76.2308 38.723C76.5608 38.471 77.0138 38.3 77.5898 38.21L78.8228 38.03V37.841C78.8228 37.577 78.7568 37.379 78.6248 37.247C78.4928 37.115 78.2798 37.049 77.9858 37.049C77.7878 37.049 77.6258 37.088 77.4998 37.166C77.3798 37.238 77.2838 37.31 77.2118 37.382C77.1398 37.46 77.0918 37.511 77.0678 37.535C77.0438 37.607 76.9988 37.643 76.9328 37.643H76.2398C76.1858 37.643 76.1378 37.625 76.0958 37.589C76.0598 37.553 76.0418 37.505 76.0418 37.445C76.0478 37.295 76.1198 37.124 76.2578 36.932C76.4018 36.74 76.6208 36.575 76.9148 36.437C77.2088 36.299 77.5688 36.23 77.9948 36.23C78.7028 36.23 79.2188 36.389 79.5428 36.707C79.8668 37.025 80.0288 37.442 80.0288 37.958V40.784C80.0288 40.844 80.0078 40.895 79.9658 40.937C79.9298 40.979 79.8788 41 79.8128 41H79.0838C79.0238 41 78.9728 40.979 78.9308 40.937C78.8888 40.895 78.8678 40.844 78.8678 40.784V40.433C78.7358 40.625 78.5468 40.784 78.3008 40.91C78.0608 41.03 77.7608 41.09 77.4008 41.09ZM77.7068 40.235C78.0368 40.235 78.3068 40.127 78.5168 39.911C78.7268 39.695 78.8318 39.38 78.8318 38.966V38.777L77.9318 38.921C77.5838 38.975 77.3198 39.062 77.1398 39.182C76.9658 39.302 76.8788 39.449 76.8788 39.623C76.8788 39.815 76.9598 39.965 77.1218 40.073C77.2838 40.181 77.4788 40.235 77.7068 40.235ZM78.4718 35.69C78.3578 35.69 78.2588 35.675 78.1748 35.645C78.0908 35.609 78.0008 35.561 77.9048 35.501C77.8928 35.495 77.8508 35.471 77.7788 35.429C77.7068 35.393 77.6348 35.375 77.5628 35.375C77.5088 35.375 77.4668 35.387 77.4368 35.411C77.4068 35.435 77.3738 35.471 77.3378 35.519C77.3078 35.567 77.2808 35.6 77.2568 35.618C77.2328 35.636 77.1998 35.645 77.1578 35.645H76.7438C76.7018 35.645 76.6658 35.63 76.6358 35.6C76.6058 35.57 76.5908 35.534 76.5908 35.492C76.5908 35.354 76.6208 35.21 76.6808 35.06C76.7468 34.91 76.8458 34.784 76.9778 34.682C77.1098 34.58 77.2718 34.529 77.4638 34.529C77.5838 34.529 77.6858 34.547 77.7698 34.583C77.8538 34.613 77.9438 34.658 78.0398 34.718C78.0938 34.748 78.1478 34.778 78.2018 34.808C78.2618 34.832 78.3218 34.844 78.3818 34.844C78.4358 34.844 78.4778 34.832 78.5078 34.808C78.5438 34.778 78.5768 34.739 78.6068 34.691C78.6368 34.649 78.6638 34.619 78.6878 34.601C78.7118 34.577 78.7448 34.565 78.7868 34.565H79.2008C79.2488 34.565 79.2848 34.583 79.3088 34.619C79.3388 34.649 79.3538 34.685 79.3538 34.727C79.3538 34.865 79.3208 35.009 79.2548 35.159C79.1888 35.303 79.0898 35.429 78.9578 35.537C78.8258 35.639 78.6638 35.69 78.4718 35.69ZM83.2534 41.09C82.5514 41.09 82.0084 40.91 81.6244 40.55C81.2404 40.184 81.0334 39.686 81.0034 39.056L80.9944 38.66L81.0034 38.264C81.0334 37.64 81.2434 37.145 81.6334 36.779C82.0234 36.413 82.5634 36.23 83.2534 36.23C83.9434 36.23 84.4834 36.413 84.8734 36.779C85.2634 37.145 85.4734 37.64 85.5034 38.264C85.5094 38.336 85.5124 38.468 85.5124 38.66C85.5124 38.852 85.5094 38.984 85.5034 39.056C85.4734 39.686 85.2664 40.184 84.8824 40.55C84.4984 40.91 83.9554 41.09 83.2534 41.09ZM83.2534 40.199C83.5714 40.199 83.8174 40.1 83.9914 39.902C84.1654 39.698 84.2614 39.401 84.2794 39.011C84.2854 38.951 84.2884 38.834 84.2884 38.66C84.2884 38.486 84.2854 38.369 84.2794 38.309C84.2614 37.919 84.1654 37.625 83.9914 37.427C83.8174 37.223 83.5714 37.121 83.2534 37.121C82.9354 37.121 82.6894 37.223 82.5154 37.427C82.3414 37.625 82.2454 37.919 82.2274 38.309L82.2184 38.66L82.2274 39.011C82.2454 39.401 82.3414 39.698 82.5154 39.902C82.6894 40.1 82.9354 40.199 83.2534 40.199Z" fill="white"/>
</svg>
